<svg width="64" height="67" viewBox="0 0 64 67" fill="none" xmlns="http://www.w3.org/2000/svg">
<path d="M31.1872 13.3058C34.8578 13.3198 37.8449 10.3583 37.859 6.69108C37.8731 3.02383 34.9088 0.0395271 31.2381 0.0254638C27.5675 0.0114005 24.5804 2.9729 24.5663 6.64015C24.5522 10.3074 27.5165 13.2917 31.1872 13.3058Z" fill="#01A5AD"/>
<path d="M6.64649 58.3165C10.3172 58.3306 13.3042 55.3691 13.3183 51.7018C13.3324 48.0346 10.3681 45.0503 6.69746 45.0362C3.02679 45.0221 0.0397058 47.9836 0.0256294 51.6509C0.011553 55.3182 2.97581 58.3024 6.64649 58.3165Z" fill="#01A5AD"/>
<path d="M56.3126 57.5623C60.0853 57.5768 63.155 54.6156 63.1691 50.9484C63.1831 47.2811 60.1362 44.2965 56.3636 44.282C52.591 44.2676 49.5212 47.2288 49.5072 50.896C49.4931 54.5633 52.54 57.5479 56.3126 57.5623Z" fill="#01A5AD"/>
<path d="M34.1713 7.59445C34.2072 7.26446 33.9587 6.96814 33.6159 6.9402C26.1449 6.33195 18.6977 8.42512 12.7314 12.8246C6.76519 17.2242 2.72136 23.6047 1.37682 30.7133C1.31507 31.0398 1.54691 31.3484 1.88681 31.4012L2.1461 31.4415C2.486 31.4941 2.80524 31.2712 2.86736 30.9446C4.15028 24.2034 7.98895 18.1535 13.6486 13.98C19.3083 9.80653 26.3709 7.81774 33.4578 8.38727C33.8007 8.41485 34.1077 8.17618 34.1439 7.84619L34.1713 7.59445Z" fill="#01A5AD"/>
<path d="M56.0199 53.2263C56.3204 53.4154 56.7215 53.3297 56.9078 53.0309C60.9718 46.5205 62.4239 38.7516 60.9659 31.2381C59.508 23.7245 55.248 17.0218 49.03 12.4304C48.7444 12.2196 48.3397 12.2844 48.1307 12.5686L47.9709 12.7858C47.762 13.07 47.8279 13.4661 48.1133 13.6772C54.0062 18.0384 58.0436 24.3979 59.4265 31.5255C60.8097 38.6529 59.4362 46.0221 55.5883 52.2016C55.402 52.5004 55.489 52.8926 55.7899 53.0816L56.0199 53.2263Z" fill="#01A5AD"/>
<path d="M4.48759 48.0098C4.16483 48.1454 4.01266 48.5164 4.15506 48.8353C7.25694 55.7816 12.8457 61.3368 19.841 64.4059C26.8364 67.4747 34.7206 67.8309 41.9544 65.4191C42.2866 65.3082 42.4581 64.9457 42.3402 64.617L42.2502 64.3661C42.1322 64.0375 41.7696 63.8668 41.4373 63.9771C34.5735 66.2575 27.0954 65.9162 20.4595 63.0047C13.8238 60.0933 8.5202 54.8272 5.57084 48.2415C5.42809 47.9226 5.05698 47.7712 4.73423 47.9065L4.48759 48.0098Z" fill="#01A5AD"/>
</svg>
